<svg width="70" height="72" viewBox="0 0 70 72" fill="none" xmlns="http://www.w3.org/2000/svg">
<path d="M62.124 40.0886C60.8466 39.1515 60.0833 37.6465 60.0833 36.0609C60.0833 34.4753 60.8466 32.9703 62.1222 32.035L68.024 27.7082C68.9646 27.0166 69.3534 25.8 68.9861 24.691C67.4668 20.1258 65.0641 15.962 61.8427 12.3124C61.0669 11.438 59.8164 11.1621 58.7467 11.6315L52.1014 14.5537C50.6538 15.1916 48.9678 15.1002 47.5936 14.3065C46.2212 13.5146 45.3003 12.1027 45.1265 10.5279L44.3274 3.23221C44.2002 2.07121 43.3366 1.12521 42.1935 0.8905C37.5406 -0.0608755 32.6511 -0.077 27.9157 0.872583C26.7655 1.10371 25.9001 2.04971 25.7729 3.21608L24.981 10.4652C24.8072 12.0418 23.8863 13.4537 22.5103 14.2456C21.1379 15.0375 19.4573 15.1325 18.0042 14.4928L11.3231 11.5545C10.2624 11.0851 9.00827 11.3574 8.23248 12.23C5.00031 15.8652 2.58694 20.0237 1.05148 24.5853C0.67881 25.6925 1.06581 26.9162 2.01002 27.6096L7.87414 31.9096C9.15339 32.8485 9.91664 34.3535 9.91664 35.9391C9.91664 37.5247 9.15339 39.0297 7.87773 39.965L1.97598 44.2918C1.03535 44.9834 0.64656 46.2 1.01385 47.309C2.53319 51.8742 4.93581 56.038 8.15723 59.6876C8.93302 60.5637 10.1872 60.8415 11.2532 60.3685L17.8985 57.4463C19.3462 56.8084 21.0304 56.8998 22.4064 57.6935C23.7788 58.4854 24.6997 59.8972 24.8735 61.4721L25.6726 68.7678C25.7998 69.9288 26.6634 70.8748 27.8064 71.1095C30.1607 71.5897 32.5794 71.8333 35 71.8333C37.3614 71.8333 39.7443 71.595 42.0824 71.1256C43.2327 70.8945 44.0981 69.9485 44.2253 68.7821L45.019 61.533C45.1928 59.9564 46.1137 58.5445 47.4897 57.7526C48.8621 56.9625 50.5445 56.8693 51.9957 57.5054L58.6769 60.4437C59.7411 60.9149 60.9917 60.6426 61.7675 59.7682C64.9996 56.133 67.413 51.9745 68.9485 47.4129C69.3212 46.3057 68.9341 45.082 67.9899 44.3886L62.124 40.0886ZM35 48.5417C28.0734 48.5417 22.4583 42.9266 22.4583 36C22.4583 29.0734 28.0734 23.4583 35 23.4583C41.9266 23.4583 47.5416 29.0734 47.5416 36C47.5416 42.9266 41.9266 48.5417 35 48.5417Z" fill="white"/>
</svg>
