<svg width="70" height="72" viewBox="0 0 70 72" fill="none" xmlns="http://wwww3org/2000/svg">
<path d="M62 40C60 39 60 37 60 36C60 34 60 32 62 32L68 27C68 27 69 25 68 24C67 20 65 15 61 12C61 11 59 11 58 11L52 14C50 15 48 15 47 14C46 13 45 12 45 10L44 3C44 2 43 1 42 0C37 -0 32 -0 27 0C26 1 25 2 25 3L24 10C24 12 23 13 22 14C21 15 19 15 18 14L11 11C10 11 9 11 8 12C5 15 2 20 1 24C0 25 1 26 2 27L7 31C9 32 9 34 9 35C9 37 9 39 7 39L1 44C1 44 0 46 1 47C2 51 4 56 8 59C8 60 10 60 11 60L17 57C19 56 21 56 22 57C23 58 24 59 24 61L25 68C25 69 26 70 27 71C30 71 32 71 35 71C37 71 39 71 42 71C43 70 44 69 44 68L45 61C45 59 46 58 47 57C48 56 50 56 51 57L58 60C59 60 60 60 61 59C64 56 67 51 68 47C69 46 68 45 67 44L62 40ZM35 48C28 48 22 42 22 36C22 29 28 23 35 23C41 23 47 29 47 36C47 42 41 48 35 48Z" fill="white"/>
</svg>
