<svg width="192" height="192" viewBox="0 0 192 192" fill="none" xmlns="http://www.w3.org/2000/svg">
<path d="M123 100C121 99 121 97 121 96C121 94 121 92 123 92L129 87C129 87 130 85 129 84C128 80 126 75 122 72C122 71 120 71 119 71L113 74C111 75 109 75 108 74C107 73 106 72 106 70L105 63C105 62 104 61 103 60C98 59 93 59 88 60C87 61 86 62 86 63L85 70C85 72 84 73 83 74C82 75 80 75 79 74L72 71C71 71 70 71 69 72C66 75 63 80 62 84C61 85 62 86 63 87L68 91C70 92 70 94 70 95C70 97 70 99 68 99L62 104C62 104 61 106 62 107C63 111 65 116 69 119C69 120 71 120 72 120L78 117C80 116 82 116 83 117C84 118 85 119 85 121L86 128C86 129 87 130 88 131C91 131 93 131 96 131C98 131 100 131 103 131C104 130 105 129 105 128L106 121C106 119 107 118 108 117C109 116 111 116 112 117L119 120C120 120 121 120 122 119C126 116 128 111 129 107C130 106 129 105 128 104L123 100ZM96 108C89 108 83 102 83 96C83 89 89 83 96 83C102 83 108 89 108 96C108 102 102 108 96 108Z" fill="white"/>
<path fill-rule="evenodd" clip-rule="evenodd" d="M90 10C91 8 93 7 95 7C96 7 98 8 99 8C99 8 100 9 101 10C102 10 103 11 103 12C103 13 104 14 104 16V28C135 32 159 56 163 88H176C177 87 178 88 179 88C180 88 180 89 181 90C182 91 183 91 183 92C183 93 184 94 184 96C184 97 183 98 183 99C183 100 182 100 181 101C180 102 180 103 179 103C178 103 177 104 176 104H163C159 135 135 159 104 163V176C104 177 103 178 103 179C103 180 102 180 101 181C100 182 100 183 99 183C98 183 97 184 96 184C94 184 93 183 92 183C91 183 91 182 90 181C89 180 88 180 88 179C88 178 87 177 88 176V163C56 159 32 135 28 104H16C14 104 13 103 12 103C11 103 11 102 10 101C9 100 8 100 8 99C8 98 7 97 7 96C7 94 8 93 8 92C8 91 9 91 10 90C11 89 11 88 12 88C13 88 14 87 16 88H28C32 56 56 32 88 28V16C87 13 88 11 90 10ZM97 44C96 44 95 44 95 44C67 44 44 66 44 95C44 95 44 96 44 96C44 124 66 147 95 147C95 147 95 147 95 147C96 147 96 147 96 147C124 147 147 125 147 97C147 96 147 95 147 95C147 67 125 44 97 44Z" fill="white"/>
</svg>
