<svg width="192" height="192" viewBox="0 0 192 192" fill="none" xmlns="http://www.w3.org/2000/svg">
<path d="M123.124 100.089C121.847 99.1516 121.083 97.6466 121.083 96.0609C121.083 94.4753 121.847 92.9703 123.122 92.0351L129.024 87.7082C129.965 87.0166 130.353 85.8001 129.986 84.691C128.467 80.1258 126.064 75.962 122.843 72.3124C122.067 71.4381 120.816 71.1621 119.747 71.6316L113.101 74.5538C111.654 75.1916 109.968 75.1002 108.594 74.3065C107.221 73.5146 106.3 72.1028 106.126 70.5279L105.327 63.2322C105.2 62.0712 104.337 61.1252 103.194 60.8905C98.5406 59.9391 93.6511 59.923 88.9157 60.8726C87.7655 61.1037 86.9001 62.0497 86.7729 63.2161L85.981 70.4652C85.8072 72.0418 84.8863 73.4537 83.5103 74.2456C82.1379 75.0375 80.4573 75.1325 79.0042 74.4928L72.3231 71.5545C71.2624 71.0851 70.0083 71.3574 69.2325 72.23C66.0003 75.8653 63.5869 80.0237 62.0515 84.5853C61.6788 85.6926 62.0658 86.9163 63.01 87.6096L68.8741 91.9096C70.1534 92.8485 70.9166 94.3535 70.9166 95.9391C70.9166 97.5247 70.1534 99.0297 68.8777 99.965L62.976 104.292C62.0354 104.983 61.6466 106.2 62.0139 107.309C63.5332 111.874 65.9358 116.038 69.1572 119.688C69.933 120.564 71.1872 120.841 72.2532 120.368L78.8985 117.446C80.3462 116.808 82.0304 116.9 83.4064 117.694C84.7788 118.485 85.6997 119.897 85.8735 121.472L86.6726 128.768C86.7998 129.929 87.6634 130.875 88.8064 131.11C91.1607 131.59 93.5794 131.833 96 131.833C98.3614 131.833 100.744 131.595 103.082 131.126C104.233 130.895 105.098 129.949 105.225 128.782L106.019 121.533C106.193 119.956 107.114 118.545 108.49 117.753C109.862 116.963 111.544 116.869 112.996 117.505L119.677 120.444C120.741 120.915 121.992 120.643 122.767 119.768C126 116.133 128.413 111.975 129.948 107.413C130.321 106.306 129.934 105.082 128.99 104.389L123.124 100.089ZM96 108.542C89.0734 108.542 83.4583 102.927 83.4583 96C83.4583 89.0734 89.0734 83.4583 96 83.4583C102.927 83.4583 108.542 89.0734 108.542 96C108.542 102.927 102.927 108.542 96 108.542Z" fill="white"/>
<path fill-rule="evenodd" clip-rule="evenodd" d="M90.263 10.3139C91.7411 8.79328 93.7624 7.9217 95.8828 7.89063C96.9524 7.87497 98.0143 8.07396 99.0057 8.47586C99.9971 8.87775 100.898 9.47437 101.655 10.2304C102.411 10.9865 103.009 11.8866 103.412 12.8776C103.815 13.8686 104.015 14.9304 104 16V28.5156C135.078 32.1896 159.81 56.9224 163.484 88H176C177.06 87.985 178.113 88.1809 179.096 88.5762C180.08 88.9715 180.975 89.5584 181.73 90.3027C182.485 91.0471 183.085 91.9341 183.494 92.9121C183.903 93.8902 184.114 94.9398 184.114 96C184.114 97.0602 183.903 98.1098 183.494 99.0879C183.085 100.066 182.485 100.953 181.73 101.697C180.975 102.442 180.08 103.029 179.096 103.424C178.113 103.819 177.06 104.015 176 104H163.484C159.81 135.078 135.078 159.81 104 163.484V176C104.015 177.06 103.819 178.113 103.424 179.096C103.029 180.08 102.442 180.975 101.697 181.73C100.953 182.485 100.066 183.085 99.0879 183.494C98.1098 183.903 97.0602 184.114 96 184.114C94.9398 184.114 93.8902 183.903 92.9121 183.494C91.934 183.085 91.0471 182.485 90.3027 181.73C89.5583 180.975 88.9715 180.08 88.5761 179.096C88.1808 178.113 87.985 177.06 88 176V163.484C56.9224 159.81 32.1895 135.078 28.5156 104H16C14.9399 104.015 13.8874 103.819 12.9036 103.424C11.9199 103.029 11.0245 102.442 10.2696 101.697C9.51461 100.953 8.91512 100.066 8.50594 99.0879C8.09676 98.1098 7.88605 97.0602 7.88605 96C7.88605 94.9398 8.09676 93.8902 8.50594 92.9121C8.91512 91.9341 9.51461 91.0471 10.2696 90.3027C11.0245 89.5584 11.9199 88.9715 12.9036 88.5762C13.8874 88.1809 14.9399 87.985 16 88H28.5156C32.1895 56.9224 56.9224 32.1896 88 28.5156V16C87.971 13.8796 88.785 11.8344 90.263 10.3139ZM97 44.0469C96.3514 44.1266 95.6955 44.1266 95.0469 44.0469C67.0173 44.5506 44.5752 66.9767 44.0469 95C44.1266 95.6486 44.1266 96.3045 44.0469 96.9531C44.5508 124.996 66.9974 147.445 95.039 147.953C95.319 147.917 95.6006 147.897 95.8828 147.891C96.2301 147.889 96.5772 147.91 96.9219 147.953C124.966 147.466 147.425 125.034 147.953 97C147.873 96.3514 147.873 95.6955 147.953 95.0469C147.449 67.0173 125.023 44.5752 97 44.0469Z" fill="white"/>
</svg>
