<svg width="192" height="192" viewBox="0 0 192 192" fill="none" xmlns="http://www.w3.org/2000/svg">
<path fill-rule="evenodd" clip-rule="evenodd" d="M90.2631 10.3139C91.7412 8.79328 93.7625 7.9217 95.8829 7.89063C96.9525 7.87497 98.0144 8.07396 99.0058 8.47586C99.9972 8.87775 100.898 9.47437 101.655 10.2304C102.411 10.9865 103.009 11.8866 103.412 12.8776C103.815 13.8686 104.015 14.9304 104 16V28.5156C135.078 32.1896 159.81 56.9224 163.484 88H176C177.06 87.985 178.113 88.1809 179.096 88.5762C180.08 88.9715 180.976 89.5584 181.73 90.3027C182.485 91.0471 183.085 91.9341 183.494 92.9121C183.903 93.8902 184.114 94.9398 184.114 96C184.114 97.0602 183.903 98.1098 183.494 99.0879C183.085 100.066 182.485 100.953 181.73 101.697C180.976 102.442 180.08 103.029 179.096 103.424C178.113 103.819 177.06 104.015 176 104H163.484C159.81 135.078 135.078 159.81 104 163.484V176C104.015 177.06 103.819 178.113 103.424 179.096C103.029 180.08 102.442 180.975 101.697 181.73C100.953 182.485 100.066 183.085 99.0879 183.494C98.1099 183.903 97.0602 184.114 96 184.114C94.9398 184.114 93.8902 183.903 92.9122 183.494C91.9341 183.085 91.0471 182.485 90.3028 181.73C89.5584 180.975 88.9715 180.08 88.5762 179.096C88.1809 178.113 87.9851 177.06 88 176V163.484C56.9224 159.81 32.1896 135.078 28.5157 104H16C14.94 104.015 13.8875 103.819 12.9037 103.424C11.92 103.029 11.0246 102.442 10.2696 101.697C9.51467 100.953 8.91519 100.066 8.506 99.0879C8.09682 98.1098 7.88611 97.0602 7.88611 96C7.88611 94.9398 8.09682 93.8902 8.506 92.9121C8.91519 91.9341 9.51467 91.0471 10.2696 90.3027C11.0246 89.5584 11.92 88.9715 12.9037 88.5762C13.8875 88.1809 14.94 87.985 16 88H28.5157C32.1896 56.9224 56.9224 32.1896 88 28.5156V16C87.971 13.8796 88.785 11.8344 90.2631 10.3139ZM97 44.0469C96.3514 44.1266 95.6955 44.1266 95.0469 44.0469C67.0173 44.5506 44.5752 66.9767 44.0469 95C44.1267 95.6486 44.1267 96.3045 44.0469 96.9531C44.5509 124.996 66.9975 147.445 95.0391 147.953C95.3191 147.917 95.6007 147.897 95.8829 147.891C96.2302 147.889 96.5773 147.91 96.9219 147.953C124.966 147.466 147.425 125.034 147.953 97C147.873 96.3514 147.873 95.6955 147.953 95.0469C147.449 67.0173 125.023 44.5752 97 44.0469Z" fill="white"/>
<path d="M87.7376 111.592C87.4296 110.584 87.0796 109.548 86.6876 108.484C86.3236 107.42 85.9596 106.356 85.5956 105.292H74.2556C73.8916 106.356 73.5136 107.42 73.1216 108.484C72.7576 109.548 72.4216 110.584 72.1136 111.592H65.3096C66.4016 108.456 67.4376 105.558 68.4176 102.898C69.3976 100.238 70.3496 97.732 71.2736 95.38C72.2256 93.028 73.1496 90.802 74.0456 88.702C74.9696 86.574 75.9216 84.502 76.9016 82.486H83.1596C84.1116 84.502 85.0496 86.574 85.9736 88.702C86.8976 90.802 87.8216 93.028 88.7456 95.38C89.6976 97.732 90.6636 100.238 91.6436 102.898C92.6236 105.558 93.6596 108.456 94.7516 111.592H87.7376ZM79.8836 89.08C79.7436 89.5 79.5336 90.074 79.2536 90.802C78.9736 91.53 78.6516 92.37 78.2876 93.322C77.9236 94.274 77.5176 95.324 77.0696 96.472C76.6496 97.62 76.2156 98.824 75.7676 100.084H84.0416C83.5936 98.824 83.1596 97.62 82.7396 96.472C82.3196 95.324 81.9136 94.274 81.5216 93.322C81.1576 92.37 80.8356 91.53 80.5556 90.802C80.2756 90.074 80.0516 89.5 79.8836 89.08Z" fill="white"/>
<path d="M106.919 112.012C105.099 111.984 103.615 111.788 102.467 111.424C101.347 111.06 100.451 110.556 99.7791 109.912C99.1351 109.24 98.6871 108.442 98.4351 107.518C98.2111 106.566 98.0991 105.502 98.0991 104.326V80.008L104.357 79V103.066C104.357 103.626 104.399 104.13 104.483 104.578C104.567 105.026 104.721 105.404 104.945 105.712C105.197 106.02 105.547 106.272 105.995 106.468C106.443 106.664 107.045 106.79 107.801 106.846L106.919 112.012Z" fill="white"/>
<path d="M111.178 83.998L117.436 82.99V89.5H124.954V94.708H117.436V102.478C117.436 103.794 117.66 104.844 118.108 105.628C118.584 106.412 119.522 106.804 120.922 106.804C121.594 106.804 122.28 106.748 122.98 106.636C123.708 106.496 124.366 106.314 124.954 106.09L125.836 110.962C125.08 111.27 124.24 111.536 123.316 111.76C122.392 111.984 121.258 112.096 119.914 112.096C118.206 112.096 116.792 111.872 115.672 111.424C114.552 110.948 113.656 110.304 112.984 109.492C112.312 108.652 111.836 107.644 111.556 106.468C111.304 105.292 111.178 103.99 111.178 102.562V83.998Z" fill="white"/>
</svg>
