<svg width="192" height="192" viewBox="0 0 192 192" fill="none" xmlns="http://www.w3.org/2000/svg">
<path fill-rule="evenodd" clip-rule="evenodd" d="M90 10C91 8 93 7 95 7C96 7 98 8 99 8C99 8 100 9 101 10C102 10 103 11 103 12C103 13 104 14 104 16V28C135 32 159 56 163 88H176C177 87 178 88 179 88C180 88 180 89 181 90C182 91 183 91 183 92C183 93 184 94 184 96C184 97 183 98 183 99C183 100 182 100 181 101C180 102 180 103 179 103C178 103 177 104 176 104H163C159 135 135 159 104 163V176C104 177 103 178 103 179C103 180 102 180 101 181C100 182 100 183 99 183C98 183 97 184 96 184C94 184 93 183 92 183C91 183 91 182 90 181C89 180 88 180 88 179C88 178 87 177 88 176V163C56 159 32 135 28 104H16C14 104 13 103 12 103C11 103 11 102 10 101C9 100 8 100 8 99C8 98 7 97 7 96C7 94 8 93 8 92C8 91 9 91 10 90C11 89 11 88 12 88C13 88 14 87 16 88H28C32 56 56 32 88 28V16C87 13 88 11 90 10ZM97 44C96 44 95 44 95 44C67 44 44 66 44 95C44 95 44 96 44 96C44 124 66 147 95 147C95 147 95 147 95 147C96 147 96 147 96 147C124 147 147 125 147 97C147 96 147 95 147 95C147 67 125 44 97 44Z" fill="white"/>
<path d="M87 111C87 110 87 109 86 108C86 107 85 106 85 105H74C73 106 73 107 73 108C72 109 72 110 72 111H65C66 108 67 105 68 102C69 100 70 97 71 95C72 93 73 90 74 88C74 86 75 84 76 82H83C84 84 85 86 85 88C86 90 87 93 88 95C89 97 90 100 91 102C92 105 93 108 94 111H87ZM79 89C79 89 79 90 79 90C78 91 78 92 78 93C77 94 77 95 77 96C76 97 76 98 75 100H84C83 98 83 97 82 96C82 95 81 94 81 93C81 92 80 91 80 90C80 90 80 89 79 89Z" fill="white"/>
<path d="M106 112C105 111 103 111 102 111C101 111 100 110 99 109C99 109 98 108 98 107C98 106 98 105 98 104V80L104 79V103C104 103 104 104 104 104C104 105 104 105 104 105C105 106 105 106 105 106C106 106 107 106 107 106L106 112Z" fill="white"/>
<path d="M111 83L117 82V89H124V94H117V102C117 103 117 104 118 105C118 106 119 106 120 106C121 106 122 106 122 106C123 106 124 106 124 106L125 110C125 111 124 111 123 111C122 111 121 112 119 112C118 112 116 111 115 111C114 110 113 110 112 109C112 108 111 107 111 106C111 105 111 103 111 102V83Z" fill="white"/>
</svg>
