<svg width="192" height="192" viewBox="0 0 192 192" fill="none" xmlns="http://www.w3.org/2000/svg">
<path d="M7.93047 88.132C7.97588 89.6903 8.62592 91.1697 9.74297 92.257L25.2273 107.741C25.5526 108.168 25.9336 108.549 26.3602 108.874L27.743 110.257C28.8682 111.382 30.3941 112.014 31.9852 112.014C33.5762 112.014 35.1021 111.382 36.2273 110.257L54.2273 92.257C54.8032 91.7041 55.2629 91.0419 55.5796 90.3092C55.8963 89.5764 56.0636 88.7878 56.0717 87.9896C56.0798 87.1913 55.9286 86.3995 55.6268 85.6604C55.3251 84.9214 54.8789 84.25 54.3145 83.6855C53.75 83.121 53.0786 82.6749 52.3395 82.3731C51.6005 82.0714 50.8087 81.9202 50.0104 81.9283C49.2122 81.9364 48.4236 82.1037 47.6908 82.4204C46.958 82.7371 46.2958 83.1968 45.743 83.7726L36.118 93.3976C37.4915 61.4181 63.6591 36.0148 95.9852 36.0148C116.289 36.0148 134.123 46.082 144.993 61.4758C145.447 62.1197 146.024 62.6677 146.691 63.0887C147.357 63.5096 148.099 63.7952 148.876 63.9291C149.653 64.063 150.448 64.0426 151.217 63.8691C151.986 63.6956 152.713 63.3723 153.357 62.9178C154.001 62.4632 154.549 61.8863 154.969 61.22C155.39 60.5537 155.676 59.811 155.81 59.0343C155.943 58.2576 155.923 57.4622 155.749 56.6935C155.576 55.9247 155.252 55.1977 154.798 54.5539C141.772 36.1077 120.265 24.0148 95.9852 24.0148C58.3735 24.0148 27.4449 53.031 24.2977 89.843L18.2273 83.7726C17.3843 82.907 16.2996 82.3161 15.1152 82.0772C13.9308 81.8382 12.7018 81.9624 11.5891 82.4335C10.4765 82.9046 9.53192 83.7006 8.87912 84.7173C8.22632 85.7341 7.89568 86.9242 7.93047 88.132ZM36.032 133.702C35.9764 135.053 36.3783 136.382 37.1727 137.476C50.1984 155.922 71.705 168.015 95.9852 168.015C133.597 168.015 164.525 138.999 167.673 102.187L173.743 108.257C174.296 108.833 174.958 109.293 175.691 109.609C176.424 109.926 177.212 110.093 178.01 110.101C178.809 110.11 179.6 109.958 180.34 109.657C181.079 109.355 181.75 108.909 182.314 108.344C182.879 107.78 183.325 107.108 183.627 106.369C183.929 105.63 184.08 104.838 184.072 104.04C184.064 103.242 183.896 102.453 183.58 101.72C183.263 100.988 182.803 100.326 182.227 99.7726L166.743 84.2883C166.418 83.8617 166.037 83.4807 165.61 83.1555L164.227 81.7726C163.102 80.6479 161.576 80.016 159.985 80.016C158.394 80.016 156.868 80.6479 155.743 81.7726L137.743 99.7726C137.167 100.332 136.709 101.001 136.396 101.74C136.084 102.48 135.923 103.275 135.923 104.077C135.923 105.271 136.279 106.438 136.947 107.429C137.614 108.419 138.561 109.188 139.668 109.636C140.774 110.085 141.99 110.194 143.158 109.948C144.327 109.702 145.395 109.114 146.227 108.257L155.852 98.632C154.479 130.612 128.311 156.015 95.9852 156.015C75.6813 156.015 57.8476 145.948 46.9773 130.554C46.2648 129.514 45.2429 128.725 44.0567 128.299C42.8705 127.873 41.5802 127.831 40.3689 128.179C39.1575 128.528 38.0867 129.249 37.3082 130.24C36.5298 131.232 36.0833 132.443 36.032 133.702Z" fill="white"/>
<path d="M123.124 100.089C121.847 99.1516 121.083 97.6466 121.083 96.0609C121.083 94.4753 121.847 92.9703 123.122 92.0351L129.024 87.7082C129.965 87.0166 130.353 85.8001 129.986 84.691C128.467 80.1258 126.064 75.962 122.843 72.3124C122.067 71.4381 120.816 71.1621 119.747 71.6316L113.101 74.5538C111.654 75.1916 109.968 75.1002 108.594 74.3065C107.221 73.5146 106.3 72.1028 106.127 70.5279L105.327 63.2322C105.2 62.0712 104.337 61.1252 103.194 60.8905C98.5406 59.9391 93.6511 59.923 88.9158 60.8726C87.7655 61.1037 86.9001 62.0497 86.7729 63.2161L85.981 70.4652C85.8072 72.0418 84.8863 73.4537 83.5103 74.2456C82.1379 75.0375 80.4573 75.1325 79.0043 74.4928L72.3231 71.5545C71.2625 71.0851 70.0083 71.3574 69.2325 72.23C66.0003 75.8653 63.587 80.0237 62.0515 84.5853C61.6788 85.6926 62.0658 86.9163 63.01 87.6096L68.8742 91.9096C70.1534 92.8485 70.9167 94.3535 70.9167 95.9391C70.9167 97.5247 70.1534 99.0297 68.8778 99.965L62.976 104.292C62.0354 104.983 61.6466 106.2 62.0139 107.309C63.5332 111.874 65.9358 116.038 69.1573 119.688C69.933 120.564 71.1872 120.841 72.2533 120.368L78.8985 117.446C80.3462 116.808 82.0304 116.9 83.4064 117.694C84.7788 118.485 85.6997 119.897 85.8735 121.472L86.6726 128.768C86.7998 129.929 87.6634 130.875 88.8065 131.11C91.1607 131.59 93.5795 131.833 96 131.833C98.3614 131.833 100.744 131.595 103.082 131.126C104.233 130.895 105.098 129.949 105.225 128.782L106.019 121.533C106.193 119.956 107.114 118.545 108.49 117.753C109.862 116.963 111.545 116.869 112.996 117.505L119.677 120.444C120.741 120.915 121.992 120.643 122.768 119.768C126 116.133 128.413 111.975 129.949 107.413C130.321 106.306 129.934 105.082 128.99 104.389L123.124 100.089ZM96 108.542C89.0734 108.542 83.4583 102.927 83.4583 96C83.4583 89.0734 89.0734 83.4583 96 83.4583C102.927 83.4583 108.542 89.0734 108.542 96C108.542 102.927 102.927 108.542 96 108.542Z" fill="white"/>
</svg>
