<svg width="192" height="192" viewBox="0 0 192 192" fill="none" xmlns="http://www.w3.org/2000/svg">
<path d="M7 88C7 89 8 91 9 92L25 107C25 108 25 108 26 108L27 110C28 111 30 112 31 112C33 112 35 111 36 110L54 92C54 91 55 91 55 90C55 89 56 88 56 87C56 87 55 86 55 85C55 84 54 84 54 83C53 83 53 82 52 82C51 82 50 81 50 81C49 81 48 82 47 82C46 82 46 83 45 83L36 93C37 61 63 36 95 36C116 36 134 46 144 61C145 62 146 62 146 63C147 63 148 63 148 63C149 64 150 64 151 63C151 63 152 63 153 62C154 62 154 61 154 61C155 60 155 59 155 59C155 58 155 57 155 56C155 55 155 55 154 54C141 36 120 24 95 24C58 24 27 53 24 89L18 83C17 82 16 82 15 82C13 81 12 81 11 82C10 82 9 83 8 84C8 85 7 86 7 88ZM36 133C35 135 36 136 37 137C50 155 71 168 95 168C133 168 164 138 167 102L173 108C174 108 174 109 175 109C176 109 177 110 178 110C178 110 179 109 180 109C181 109 181 108 182 108C182 107 183 107 183 106C183 105 184 104 184 104C184 103 183 102 183 101C183 100 182 100 182 99L166 84C166 83 166 83 165 83L164 81C163 80 161 80 159 80C158 80 156 80 155 81L137 99C137 100 136 101 136 101C136 102 135 103 135 104C135 105 136 106 136 107C137 108 138 109 139 109C140 110 141 110 143 109C144 109 145 109 146 108L155 98C154 130 128 156 95 156C75 156 57 145 46 130C46 129 45 128 44 128C42 127 41 127 40 128C39 128 38 129 37 130C36 131 36 132 36 133Z" fill="white"/>
<path d="M123 100C121 99 121 97 121 96C121 94 121 92 123 92L129 87C129 87 130 85 129 84C128 80 126 75 122 72C122 71 120 71 119 71L113 74C111 75 109 75 108 74C107 73 106 72 106 70L105 63C105 62 104 61 103 60C98 59 93 59 88 60C87 61 86 62 86 63L85 70C85 72 84 73 83 74C82 75 80 75 79 74L72 71C71 71 70 71 69 72C66 75 63 80 62 84C61 85 62 86 63 87L68 91C70 92 70 94 70 95C70 97 70 99 68 99L62 104C62 104 61 106 62 107C63 111 65 116 69 119C69 120 71 120 72 120L78 117C80 116 82 116 83 117C84 118 85 119 85 121L86 128C86 129 87 130 88 131C91 131 93 131 96 131C98 131 100 131 103 131C104 130 105 129 105 128L106 121C106 119 107 118 108 117C109 116 111 116 112 117L119 120C120 120 121 120 122 119C126 116 128 111 129 107C130 106 129 105 128 104L123 100ZM96 108C89 108 83 102 83 96C83 89 89 83 96 83C102 83 108 89 108 96C108 102 102 108 96 108Z" fill="white"/>
</svg>
