<svg width="192" height="192" viewBox="0 0 192 192" fill="none" xmlns="http://www.w3.org/2000/svg">
<path d="M77 20C75 20 72 20 70 20C42 23 20 45 16 72C14 85 17 98 22 109L16 136C15 137 15 138 16 139C16 140 17 141 17 142C18 142 19 143 20 143C21 144 22 144 23 143L50 137C61 142 74 145 87 143C114 139 136 117 139 89C143 54 118 24 84 20C82 20 80 19 77 20ZM147 58C151 68 152 79 151 91C147 124 121 150 89 155C85 155 81 156 78 156C76 156 74 155 72 155C80 163 92 169 104 171C117 173 130 171 142 165L168 171C169 171 169 172 170 172C171 172 173 171 174 170C175 168 176 166 175 164L169 138C175 126 177 113 175 100C172 82 162 67 147 58Z" fill="white"/>
</svg>
