<svg width="192" height="192" viewBox="0 0 192 192" fill="none" xmlns="http://www.w3.org/2000/svg">
<path d="M77.5547 20.0078C75.0951 20.0219 72.6013 20.1798 70.086 20.4922C42.7884 23.8811 20.6982 45.4698 16.6875 72.6875C14.7277 85.9942 17.4337 98.5407 22.8594 109.422L16.1719 136.562C15.9243 137.565 15.9397 138.615 16.2166 139.61C16.4934 140.604 17.0224 141.511 17.7522 142.242C18.482 142.972 19.3881 143.502 20.3827 143.78C21.3773 144.058 22.4268 144.075 23.4297 143.828L50.5938 137.148C61.476 142.57 74.0261 145.269 87.3282 143.305C114.537 139.289 136.119 117.207 139.508 89.9141C143.886 54.7022 118.263 24.1334 84.8282 20.3906C82.4399 20.1233 80.0144 19.9937 77.5547 20.0078ZM147.961 58.0391C151.601 68.5991 152.798 79.9984 151.398 91.3984C147.358 124.118 121.718 150.356 89.0782 155.156C85.3982 155.716 81.68 156 78 156C76.04 156 74.0382 155.919 72.0782 155.719C80.9182 163.879 92.2397 169.44 104.68 171.32C117.64 173.2 130.52 171.161 142 165.281L168.563 171.844C169.043 171.964 169.52 172 170 172C171.56 172 173.122 171.402 174.242 170.242C175.722 168.762 176.324 166.602 175.844 164.562L169.281 138C175.161 126.52 177.24 113.68 175.32 100.68C172.68 82.8397 162.401 67.5191 147.961 58.0391Z" fill="white"/>
</svg>
