<svg width="192" height="192" viewBox="0 0 192 192" fill="none" xmlns="http://www.w3.org/2000/svg">
<path d="M155.93 27.8828C153.816 27.9327 151.807 28.8175 150.344 30.3438L96 84.6875L41.6562 30.3438C40.9098 29.5765 40.017 28.9668 39.0306 28.5507C38.0443 28.1347 36.9845 27.9209 35.914 27.9219C34.3232 27.9239 32.7691 28.4 31.4503 29.2895C30.1314 30.179 29.1076 31.4415 28.5097 32.9157C27.9119 34.3898 27.767 36.0088 28.0937 37.5657C28.4203 39.1226 29.2037 40.5467 30.3437 41.6563L84.6875 96L30.3437 150.344C29.5759 151.081 28.963 151.964 28.5407 152.941C28.1184 153.918 27.8953 154.969 27.8845 156.034C27.8736 157.098 28.0753 158.154 28.4776 159.139C28.8799 160.125 29.4748 161.02 30.2274 161.773C30.9801 162.525 31.8753 163.12 32.8607 163.522C33.8462 163.925 34.9019 164.126 35.9663 164.116C37.0306 164.105 38.0821 163.882 39.0591 163.459C40.0361 163.037 40.9191 162.424 41.6562 161.656L96 107.313L150.344 161.656C151.081 162.424 151.964 163.037 152.941 163.459C153.918 163.882 154.969 164.105 156.034 164.116C157.098 164.126 158.154 163.925 159.139 163.522C160.125 163.12 161.02 162.525 161.773 161.773C162.525 161.02 163.12 160.125 163.522 159.139C163.925 158.154 164.126 157.098 164.116 156.034C164.105 154.969 163.882 153.918 163.459 152.941C163.037 151.964 162.424 151.081 161.656 150.344L107.312 96L161.656 41.6563C162.82 40.54 163.62 39.098 163.95 37.5193C164.28 35.9406 164.126 34.299 163.506 32.8098C162.887 31.3206 161.832 30.0532 160.48 29.174C159.128 28.2948 157.542 27.8447 155.93 27.8828Z" fill="white"/>
</svg>
