<svg width="192" height="192" viewBox="0 0 192 192" fill="none" xmlns="http://www.w3.org/2000/svg">
<path d="M155 27C153 27 151 28 150 30L96 84L41 30C40 29 40 28 39 28C38 28 36 27 35 27C34 27 32 28 31 29C30 30 29 31 28 32C27 34 27 36 28 37C28 39 29 40 30 41L84 96L30 150C29 151 28 151 28 152C28 153 27 154 27 156C27 157 28 158 28 159C28 160 29 161 30 161C30 162 31 163 32 163C33 163 34 164 35 164C37 164 38 163 39 163C40 163 40 162 41 161L96 107L150 161C151 162 151 163 152 163C153 163 154 164 156 164C157 164 158 163 159 163C160 163 161 162 161 161C162 161 163 160 163 159C163 158 164 157 164 156C164 154 163 153 163 152C163 151 162 151 161 150L107 96L161 41C162 40 163 39 163 37C164 35 164 34 163 32C162 31 161 30 160 29C159 28 157 27 155 27Z" fill="white"/>
</svg>
