<svg width="192" height="192" viewBox="0 0 192 192" fill="none" xmlns="http://www.w3.org/2000/svg">
<path d="M42 24C29 24 20 33 20 46V54V146C20 158 29 168 42 168H92C93 164 94 161 96 158C93 157 90 155 89 152H42C38 152 36 149 36 146V60H156V93C160 95 163 99 163 104C166 102 168 100 172 100V54V46C172 33 162 24 150 24H42ZM42 36C45 36 48 38 48 42C48 45 45 48 42 48C38 48 36 45 36 42C36 38 38 36 42 36ZM62 36C65 36 68 38 68 42C68 45 65 48 62 48C58 48 56 45 56 42C56 38 58 36 62 36ZM129 99C128 99 126 100 125 101C124 102 123 104 124 106V108C124 110 124 112 125 114C122 117 119 120 117 123C114 123 112 121 112 118V114C112 113 111 112 111 111C111 110 110 110 110 109C109 109 108 108 108 108C107 108 106 107 105 107C104 107 102 108 101 109C100 110 99 112 100 114V118C100 127 107 134 116 135V140H102C101 139 100 140 99 140C98 140 98 141 97 141C97 142 96 142 96 143C96 144 95 145 95 146C95 146 96 147 96 148C96 149 97 149 97 150C98 150 98 151 99 151C100 151 101 152 102 152H116V156C116 156 116 156 116 156C107 157 100 164 100 174V178C99 178 100 179 100 180C100 181 101 181 101 182C102 182 102 183 103 183C104 183 105 184 106 184C106 184 107 183 108 183C109 183 109 182 110 182C110 181 111 181 111 180C111 179 112 178 112 178V174C112 170 114 168 118 168H119C123 175 131 180 140 180C148 180 156 175 160 168H162C165 168 168 170 168 174V178C167 178 168 179 168 180C168 181 169 181 169 182C170 182 170 183 171 183C172 183 173 184 174 184C174 184 175 183 176 183C177 183 177 182 178 182C178 181 179 181 179 180C179 179 180 178 180 178V174C180 164 172 157 163 156C163 156 164 156 164 156V152H178C178 152 179 151 180 151C181 151 181 150 182 150C182 149 183 149 183 148C183 147 184 146 184 146C184 145 183 144 183 143C183 142 182 142 182 141C181 141 181 140 180 140C179 140 178 139 178 140H164V135C172 134 180 127 180 118V114C180 113 179 112 179 111C179 110 178 110 178 109C177 109 176 108 176 108C175 108 174 107 173 107C172 107 170 108 169 109C168 110 167 112 168 114V118C168 121 165 123 162 123C160 120 157 117 154 114C155 112 156 110 156 108V106C156 105 155 104 155 103C155 102 154 102 154 101C153 101 153 100 152 100C151 100 150 99 150 99C149 99 148 100 147 100C146 100 146 101 145 101C145 102 144 102 144 103C144 104 143 105 144 106V108C144 110 142 112 140 112C137 112 136 110 136 108V106C136 105 135 104 135 103C135 102 134 102 134 101C133 101 132 100 132 100C131 100 130 99 129 99Z" fill="white"/>
</svg>
