<svg width="192" height="192" viewBox="0 0 192 192" fill="none" xmlns="http://www.w3.org/2000/svg">
<path d="M42 24C29.872 24 20 33.872 20 46V54V146C20 158.128 29.868 168 42 168H92.7812C93.5652 164.732 94.8929 161.66 96.7969 158.992C93.5289 157.68 90.8752 155.164 89.3672 152H42C38.692 152 36 149.308 36 146V60H156V93.4141C160.228 95.4381 163.314 99.4725 163.898 104.312C166.006 102.113 168.848 100.667 172 100.211V54V46C172 33.872 162.128 24 150 24H42ZM42 36C45.312 36 48 38.688 48 42C48 45.312 45.312 48 42 48C38.688 48 36 45.312 36 42C36 38.688 38.688 36 42 36ZM62 36C65.312 36 68 38.688 68 42C68 45.312 65.312 48 62 48C58.688 48 56 45.312 56 42C56 38.688 58.688 36 62 36ZM129.906 99.9141C128.316 99.9389 126.801 100.594 125.694 101.735C124.586 102.876 123.977 104.41 124 106V108C124 110.513 124.648 112.865 125.703 114.992C122.225 117.116 119.429 120.225 117.758 123.977C114.494 123.852 112 121.302 112 118V114C112.012 113.197 111.862 112.4 111.559 111.656C111.257 110.912 110.809 110.236 110.24 109.668C109.672 109.101 108.996 108.653 108.251 108.352C107.507 108.05 106.709 107.902 105.906 107.914C104.316 107.939 102.801 108.594 101.694 109.735C100.586 110.876 99.9772 112.41 100 114V118C100 127.186 107.066 134.777 116 135.797V140H102C101.205 139.989 100.416 140.136 99.6777 140.432C98.9399 140.729 98.2684 141.169 97.7022 141.727C97.136 142.285 96.6863 142.951 96.3795 143.684C96.0726 144.418 95.9145 145.205 95.9145 146C95.9145 146.795 96.0726 147.582 96.3795 148.316C96.6863 149.049 97.136 149.715 97.7022 150.273C98.2684 150.831 98.9399 151.271 99.6777 151.568C100.416 151.864 101.205 152.011 102 152H116V156C116 156.068 116.007 156.135 116.008 156.203C107.071 157.219 100 164.811 100 174V178C99.9888 178.795 100.136 179.584 100.432 180.322C100.729 181.06 101.169 181.732 101.727 182.298C102.285 182.864 102.951 183.314 103.684 183.621C104.418 183.927 105.205 184.085 106 184.085C106.795 184.085 107.582 183.927 108.316 183.621C109.049 183.314 109.715 182.864 110.273 182.298C110.831 181.732 111.271 181.06 111.568 180.322C111.864 179.584 112.011 178.795 112 178V174C112 170.614 114.614 168 118 168H119.242C123.399 175.162 131.138 180 140 180C148.862 180 156.601 175.162 160.758 168H162C165.386 168 168 170.614 168 174V178C167.989 178.795 168.136 179.584 168.432 180.322C168.729 181.06 169.169 181.732 169.727 182.298C170.285 182.864 170.951 183.314 171.684 183.621C172.418 183.927 173.205 184.085 174 184.085C174.795 184.085 175.582 183.927 176.316 183.621C177.049 183.314 177.715 182.864 178.273 182.298C178.831 181.732 179.271 181.06 179.568 180.322C179.864 179.584 180.011 178.795 180 178V174C180 164.811 172.929 157.219 163.992 156.203C163.993 156.135 164 156.068 164 156V152H178C178.795 152.011 179.584 151.864 180.322 151.568C181.06 151.271 181.732 150.831 182.298 150.273C182.864 149.715 183.314 149.049 183.621 148.316C183.927 147.582 184.085 146.795 184.085 146C184.085 145.205 183.927 144.418 183.621 143.684C183.314 142.951 182.864 142.285 182.298 141.727C181.732 141.169 181.06 140.729 180.322 140.432C179.584 140.136 178.795 139.989 178 140H164V135.797C172.934 134.777 180 127.186 180 118V114C180.012 113.197 179.862 112.4 179.559 111.656C179.257 110.912 178.809 110.236 178.24 109.668C177.672 109.101 176.996 108.653 176.251 108.352C175.507 108.05 174.709 107.902 173.906 107.914C172.316 107.939 170.801 108.594 169.694 109.735C168.586 110.876 167.977 112.41 168 114V118C168 121.302 165.506 123.852 162.242 123.977C160.571 120.225 157.776 117.116 154.297 114.992C155.352 112.865 156 110.513 156 108V106C156.011 105.205 155.864 104.416 155.568 103.678C155.271 102.94 154.831 102.268 154.273 101.702C153.715 101.136 153.049 100.686 152.316 100.379C151.582 100.073 150.795 99.9145 150 99.9145C149.205 99.9145 148.418 100.073 147.684 100.379C146.951 100.686 146.285 101.136 145.727 101.702C145.169 102.268 144.729 102.94 144.432 103.678C144.136 104.416 143.989 105.205 144 106V108C144 110.283 142.283 112 140 112C137.717 112 136 110.283 136 108V106C136.012 105.197 135.862 104.4 135.559 103.656C135.257 102.912 134.809 102.236 134.24 101.668C133.672 101.101 132.996 100.653 132.251 100.352C131.507 100.05 130.709 99.9015 129.906 99.9141Z" fill="white"/>
</svg>
