<svg width="192" height="192" viewBox="0 0 192 192" fill="none" xmlns="http://www.w3.org/2000/svg">
<path d="M159.844 23.9219C159.548 23.9316 159.253 23.9576 158.961 24H124C122.94 23.985 121.887 24.1808 120.904 24.5761C119.92 24.9715 119.024 25.5583 118.27 26.3027C117.515 27.0471 116.915 27.934 116.506 28.9121C116.097 29.8901 115.886 30.9398 115.886 32C115.886 33.0602 116.097 34.1098 116.506 35.0879C116.915 36.0659 117.515 36.9529 118.27 37.6973C119.024 38.4416 119.92 39.0285 120.904 39.4238C121.887 39.8191 122.94 40.015 124 40H140.687L40 140.687V124C40.0149 122.94 39.8191 121.887 39.4238 120.904C39.0285 119.92 38.4416 119.025 37.6972 118.27C36.9529 117.515 36.0659 116.915 35.0878 116.506C34.1098 116.097 33.0602 115.886 32 115.886C30.9398 115.886 29.8901 116.097 28.9121 116.506C27.934 116.915 27.047 117.515 26.3027 118.27C25.5583 119.025 24.9714 119.92 24.5761 120.904C24.1808 121.887 23.985 122.94 24 124V159.016C23.8363 160.239 23.9579 161.483 24.3552 162.652C24.7524 163.82 25.4146 164.881 26.2899 165.751C27.1652 166.621 28.2299 167.277 29.4007 167.667C30.5716 168.057 31.8168 168.171 33.039 168H68C69.0601 168.015 70.1126 167.819 71.0963 167.424C72.08 167.028 72.9754 166.442 73.7304 165.697C74.4853 164.953 75.0848 164.066 75.494 163.088C75.9032 162.11 76.1139 161.06 76.1139 160C76.1139 158.94 75.9032 157.89 75.494 156.912C75.0848 155.934 74.4853 155.047 73.7304 154.303C72.9754 153.558 72.08 152.971 71.0963 152.576C70.1126 152.181 69.0601 151.985 68 152H51.3125L152 51.3125V68C151.985 69.0601 152.181 70.1126 152.576 71.0963C152.971 72.0801 153.558 72.9754 154.303 73.7304C155.047 74.4854 155.934 75.0848 156.912 75.494C157.89 75.9032 158.94 76.1139 160 76.1139C161.06 76.1139 162.11 75.9032 163.088 75.494C164.066 75.0848 164.953 74.4854 165.697 73.7304C166.442 72.9754 167.028 72.0801 167.424 71.0963C167.819 70.1126 168.015 69.0601 168 68V32.9844C168.154 31.8349 168.057 30.6657 167.715 29.5576C167.372 28.4496 166.793 27.4292 166.017 26.5672C165.241 25.7052 164.288 25.0221 163.222 24.5653C162.156 24.1086 161.003 23.889 159.844 23.9219ZM32 24C31.486 24.0002 30.9732 24.0499 30.4687 24.1484C29.9991 24.2424 29.539 24.3784 29.0937 24.5547C29.0464 24.5731 29.0001 24.59 28.9531 24.6094C28.5009 24.7958 28.0668 25.0233 27.6562 25.289C27.6277 25.3076 27.5986 25.3248 27.5703 25.3437C27.1474 25.6258 26.7524 25.9476 26.3906 26.3047C26.3758 26.3192 26.3584 26.329 26.3437 26.3437C26.337 26.3505 26.3348 26.3604 26.3281 26.3672C25.9586 26.7374 25.6262 27.143 25.3359 27.5781C25.3288 27.5887 25.3195 27.5987 25.3125 27.6094C25.0503 28.0153 24.8254 28.4441 24.6406 28.8906C24.6173 28.9458 24.5923 28.9991 24.5703 29.0547C24.3993 29.485 24.266 29.9294 24.1718 30.3828C24.1622 30.4299 24.1494 30.4761 24.1406 30.5234C24.0481 31.0102 24.001 31.5045 24 32V68C23.985 69.0601 24.1808 70.1126 24.5761 71.0963C24.9714 72.0801 25.5583 72.9754 26.3027 73.7304C27.047 74.4854 27.934 75.0848 28.9121 75.494C29.8901 75.9032 30.9398 76.1139 32 76.1139C33.0602 76.1139 34.1098 75.9032 35.0878 75.494C36.0659 75.0848 36.9529 74.4854 37.6972 73.7304C38.4416 72.9754 39.0285 72.0801 39.4238 71.0963C39.8191 70.1126 40.0149 69.0601 40 68V51.3125L79.0312 90.3437L90.3437 79.0312L51.3125 40H68C69.0601 40.015 70.1126 39.8191 71.0963 39.4238C72.08 39.0285 72.9754 38.4416 73.7304 37.6973C74.4853 36.9529 75.0848 36.0659 75.494 35.0879C75.9032 34.1098 76.1139 33.0602 76.1139 32C76.1139 30.9398 75.9032 29.8901 75.494 28.9121C75.0848 27.934 74.4853 27.0471 73.7304 26.3027C72.9754 25.5583 72.08 24.9715 71.0963 24.5761C70.1126 24.1808 69.0601 23.985 68 24H32ZM112.969 101.656L101.656 112.969L140.687 152H124C122.94 151.985 121.887 152.181 120.904 152.576C119.92 152.971 119.024 153.558 118.27 154.303C117.515 155.047 116.915 155.934 116.506 156.912C116.097 157.89 115.886 158.94 115.886 160C115.886 161.06 116.097 162.11 116.506 163.088C116.915 164.066 117.515 164.953 118.27 165.697C119.024 166.442 119.92 167.028 120.904 167.424C121.887 167.819 122.94 168.015 124 168H160C160.514 168 161.027 167.95 161.531 167.852C162.001 167.758 162.461 167.622 162.906 167.445C162.954 167.427 163 167.41 163.047 167.391C163.499 167.204 163.933 166.977 164.344 166.711C164.372 166.693 164.401 166.675 164.43 166.656C164.853 166.374 165.248 166.052 165.609 165.695C165.63 165.675 165.651 165.654 165.672 165.633C166.041 165.263 166.374 164.857 166.664 164.422C166.669 164.414 166.674 164.406 166.68 164.398C166.682 164.395 166.686 164.394 166.687 164.391C166.95 163.985 167.175 163.556 167.359 163.109C167.383 163.054 167.408 163.001 167.43 162.945C167.601 162.515 167.734 162.071 167.828 161.617C167.838 161.57 167.851 161.524 167.859 161.477C167.952 160.99 167.999 160.495 168 160V124C168.015 122.93 167.815 121.869 167.412 120.878C167.009 119.887 166.411 118.986 165.655 118.23C164.898 117.474 163.997 116.878 163.006 116.476C162.014 116.074 160.952 115.875 159.883 115.891C157.762 115.922 155.741 116.793 154.263 118.314C152.785 119.834 151.971 121.88 152 124V140.687L112.969 101.656Z" fill="white"/>
</svg>
