<svg width="192" height="192" viewBox="0 0 192 192" fill="none" xmlns="http://www.w3.org/2000/svg">
<path d="M159 23C159 23 159 23 158 24H124C122 23 121 24 120 24C119 24 119 25 118 26C117 27 116 27 116 28C116 29 115 30 115 32C115 33 116 34 116 35C116 36 117 36 118 37C119 38 119 39 120 39C121 39 122 40 124 40H140L40 140V124C40 122 39 121 39 120C39 119 38 119 37 118C36 117 36 116 35 116C34 116 33 115 32 115C30 115 29 116 28 116C27 116 27 117 26 118C25 119 24 119 24 120C24 121 23 122 24 124V159C23 160 23 161 24 162C24 163 25 164 26 165C27 166 28 167 29 167C30 168 31 168 33 168H68C69 168 70 167 71 167C72 167 72 166 73 165C74 164 75 164 75 163C75 162 76 161 76 160C76 158 75 157 75 156C75 155 74 155 73 154C72 153 72 152 71 152C70 152 69 151 68 152H51L152 51V68C151 69 152 70 152 71C152 72 153 72 154 73C155 74 155 75 156 75C157 75 158 76 160 76C161 76 162 75 163 75C164 75 164 74 165 73C166 72 167 72 167 71C167 70 168 69 168 68V32C168 31 168 30 167 29C167 28 166 27 166 26C165 25 164 25 163 24C162 24 161 23 159 23ZM32 24C31 24 30 24 30 24C29 24 29 24 29 24C29 24 29 24 28 24C28 24 28 25 27 25C27 25 27 25 27 25C27 25 26 25 26 26C26 26 26 26 26 26C26 26 26 26 26 26C25 26 25 27 25 27C25 27 25 27 25 27C25 28 24 28 24 28C24 28 24 28 24 29C24 29 24 29 24 30C24 30 24 30 24 30C24 31 24 31 24 32V68C23 69 24 70 24 71C24 72 25 72 26 73C27 74 27 75 28 75C29 75 30 76 32 76C33 76 34 75 35 75C36 75 36 74 37 73C38 72 39 72 39 71C39 70 40 69 40 68V51L79 90L90 79L51 40H68C69 40 70 39 71 39C72 39 72 38 73 37C74 36 75 36 75 35C75 34 76 33 76 32C76 30 75 29 75 28C75 27 74 27 73 26C72 25 72 24 71 24C70 24 69 23 68 24H32ZM112 101L101 112L140 152H124C122 151 121 152 120 152C119 152 119 153 118 154C117 155 116 155 116 156C116 157 115 158 115 160C115 161 116 162 116 163C116 164 117 164 118 165C119 166 119 167 120 167C121 167 122 168 124 168H160C160 168 161 167 161 167C162 167 162 167 162 167C162 167 163 167 163 167C163 167 163 166 164 166C164 166 164 166 164 166C164 166 165 166 165 165C165 165 165 165 165 165C166 165 166 164 166 164C166 164 166 164 166 164C166 164 166 164 166 164C166 163 167 163 167 163C167 163 167 163 167 162C167 162 167 162 167 161C167 161 167 161 167 161C167 160 167 160 168 160V124C168 122 167 121 167 120C167 119 166 118 165 118C164 117 163 116 163 116C162 116 160 115 159 115C157 115 155 116 154 118C152 119 151 121 152 124V140L112 101Z" fill="white"/>
</svg>
