<svg width="192" height="192" viewBox="0 0 192 192" fill="none" xmlns="http://www.w3.org/2000/svg">
<path d="M24 36C22.9399 35.985 21.8874 36.1809 20.9037 36.5762C19.9199 36.9715 19.0245 37.5584 18.2696 38.3027C17.5146 39.0471 16.9151 39.9341 16.506 40.9121C16.0968 41.8902 15.8861 42.9398 15.8861 44C15.8861 45.0602 16.0968 46.1098 16.506 47.0879C16.9151 48.066 17.5146 48.9529 18.2696 49.6973C19.0245 50.4416 19.9199 51.0285 20.9037 51.4238C21.8874 51.8191 22.9399 52.015 24 52H168C169.06 52.015 170.113 51.8191 171.096 51.4238C172.08 51.0285 172.975 50.4416 173.73 49.6973C174.485 48.9529 175.085 48.066 175.494 47.0879C175.903 46.1098 176.114 45.0602 176.114 44C176.114 42.9398 175.903 41.8902 175.494 40.9121C175.085 39.9341 174.485 39.0471 173.73 38.3027C172.975 37.5584 172.08 36.9715 171.096 36.5762C170.113 36.1809 169.06 35.985 168 36H24ZM24 88C22.9399 87.985 21.8874 88.1809 20.9037 88.5762C19.9199 88.9715 19.0245 89.5584 18.2696 90.3027C17.5146 91.0471 16.9151 91.9341 16.506 92.9121C16.0968 93.8902 15.8861 94.9398 15.8861 96C15.8861 97.0602 16.0968 98.1098 16.506 99.0879C16.9151 100.066 17.5146 100.953 18.2696 101.697C19.0245 102.442 19.9199 103.029 20.9037 103.424C21.8874 103.819 22.9399 104.015 24 104H168C169.06 104.015 170.113 103.819 171.096 103.424C172.08 103.029 172.975 102.442 173.73 101.697C174.485 100.953 175.085 100.066 175.494 99.0879C175.903 98.1098 176.114 97.0602 176.114 96C176.114 94.9398 175.903 93.8902 175.494 92.9121C175.085 91.9341 174.485 91.0471 173.73 90.3027C172.975 89.5584 172.08 88.9715 171.096 88.5762C170.113 88.1809 169.06 87.985 168 88H24ZM24 140C22.9399 139.985 21.8874 140.181 20.9037 140.576C19.9199 140.971 19.0245 141.558 18.2696 142.303C17.5146 143.047 16.9151 143.934 16.506 144.912C16.0968 145.89 15.8861 146.94 15.8861 148C15.8861 149.06 16.0968 150.11 16.506 151.088C16.9151 152.066 17.5146 152.953 18.2696 153.697C19.0245 154.442 19.9199 155.029 20.9037 155.424C21.8874 155.819 22.9399 156.015 24 156H168C169.06 156.015 170.113 155.819 171.096 155.424C172.08 155.029 172.975 154.442 173.73 153.697C174.485 152.953 175.085 152.066 175.494 151.088C175.903 150.11 176.114 149.06 176.114 148C176.114 146.94 175.903 145.89 175.494 144.912C175.085 143.934 174.485 143.047 173.73 142.303C172.975 141.558 172.08 140.971 171.096 140.576C170.113 140.181 169.06 139.985 168 140H24Z" fill="white"/>
</svg>
