<svg width="192" height="192" viewBox="0 0 192 192" fill="none" xmlns="http://www.w3.org/2000/svg">
<path d="M24 36C22 35 21 36 20 36C19 36 19 37 18 38C17 39 16 39 16 40C16 41 15 42 15 44C15 45 16 46 16 47C16 48 17 48 18 49C19 50 19 51 20 51C21 51 22 52 24 52H168C169 52 170 51 171 51C172 51 172 50 173 49C174 48 175 48 175 47C175 46 176 45 176 44C176 42 175 41 175 40C175 39 174 39 173 38C172 37 172 36 171 36C170 36 169 35 168 36H24ZM24 88C22 87 21 88 20 88C19 88 19 89 18 90C17 91 16 91 16 92C16 93 15 94 15 96C15 97 16 98 16 99C16 100 17 100 18 101C19 102 19 103 20 103C21 103 22 104 24 104H168C169 104 170 103 171 103C172 103 172 102 173 101C174 100 175 100 175 99C175 98 176 97 176 96C176 94 175 93 175 92C175 91 174 91 173 90C172 89 172 88 171 88C170 88 169 87 168 88H24ZM24 140C22 139 21 140 20 140C19 140 19 141 18 142C17 143 16 143 16 144C16 145 15 146 15 148C15 149 16 150 16 151C16 152 17 152 18 153C19 154 19 155 20 155C21 155 22 156 24 156H168C169 156 170 155 171 155C172 155 172 154 173 153C174 152 175 152 175 151C175 150 176 149 176 148C176 146 175 145 175 144C175 143 174 143 173 142C172 141 172 140 171 140C170 140 169 139 168 140H24Z" fill="white"/>
</svg>
