<svg width="192" height="192" viewBox="0 0 192 192" fill="none" xmlns="http://www.w3.org/2000/svg">
<path d="M162 48H30C17.872 48 8 57.872 8 70V122C8 134.128 17.872 144 30 144H162C174.128 144 184 134.128 184 122V70C184 57.872 174.128 48 162 48ZM172 122C172 127.516 167.516 132 162 132H110C104.484 132 100 127.516 100 122V70C100 64.484 104.484 60 110 60H162C167.516 60 172 64.484 172 70V122Z" fill="white"/>
<path d="M137.588 117C137.154 115.58 136.661 114.121 136.109 112.622C135.596 111.123 135.083 109.624 134.571 108.126H118.6C118.087 109.624 117.554 111.123 117.002 112.622C116.49 114.121 116.017 115.58 115.583 117H106C107.538 112.582 108.997 108.5 110.377 104.753C111.758 101.006 113.098 97.4762 114.4 94.1631C115.74 90.8499 117.042 87.7143 118.304 84.7561C119.605 81.7585 120.946 78.8398 122.326 76H131.14C132.481 78.8398 133.802 81.7585 135.103 84.7561C136.404 87.7143 137.706 90.8499 139.007 94.1631C140.348 97.4762 141.708 101.006 143.089 104.753C144.469 108.5 145.928 112.582 147.466 117H137.588ZM126.526 85.2886C126.329 85.8802 126.033 86.6888 125.639 87.7143C125.244 88.7398 124.791 89.923 124.278 91.2641C123.766 92.6051 123.194 94.0842 122.563 95.7013C121.971 97.3184 121.36 99.0144 120.729 100.789H132.382C131.751 99.0144 131.14 97.3184 130.548 95.7013C129.957 94.0842 129.385 92.6051 128.833 91.2641C128.32 89.923 127.867 88.7398 127.472 87.7143C127.078 86.6888 126.763 85.8802 126.526 85.2886Z" fill="white"/>
<path d="M152.772 76H162V117H152.772V76Z" fill="white"/>
</svg>
