<svg width="192" height="192" viewBox="0 0 192 192" fill="none" xmlns="http://www.w3.org/2000/svg">
<path d="M162 48H30C17 48 8 57 8 70V122C8 134 17 144 30 144H162C174 144 184 134 184 122V70C184 57 174 48 162 48ZM172 122C172 127 167 132 162 132H110C104 132 100 127 100 122V70C100 64 104 60 110 60H162C167 60 172 64 172 70V122Z" fill="white"/>
<path d="M137 117C137 115 136 114 136 112C135 111 135 109 134 108H118C118 109 117 111 117 112C116 114 116 115 115 117H106C107 112 108 108 110 104C111 101 113 97 114 94C115 90 117 87 118 84C119 81 120 78 122 76H131C132 78 133 81 135 84C136 87 137 90 139 94C140 97 141 101 143 104C144 108 145 112 147 117H137ZM126 85C126 85 126 86 125 87C125 88 124 89 124 91C123 92 123 94 122 95C121 97 121 99 120 100H132C131 99 131 97 130 95C129 94 129 92 128 91C128 89 127 88 127 87C127 86 126 85 126 85Z" fill="white"/>
<path d="M152 76H162V117H152V76Z" fill="white"/>
</svg>
