<svg width="192" height="192" viewBox="0 0 192 192" fill="none" xmlns="http://www.w3.org/2000/svg">
<path d="M30 48H162C174 48 184 57 184 70V122C184 134 174 144 162 144H30C17 144 8 134 8 122V70C8 57 17 48 30 48ZM20 122C20 127 24 132 30 132H82C87 132 92 127 92 122V70C92 64 87 60 82 60H30C24 60 20 64 20 70V122Z" fill="white"/>
<path d="M57 117C57 115 56 114 56 112C55 111 55 109 54 108H38C38 109 37 111 37 112C36 114 36 115 35 117H26C27 112 28 108 30 104C31 101 33 97 34 94C35 90 37 87 38 84C39 81 40 78 42 76H51C52 78 53 81 55 84C56 87 57 90 59 94C60 97 61 101 63 104C64 108 65 112 67 117H57ZM46 85C46 85 46 86 45 87C45 88 44 89 44 91C43 92 43 94 42 95C41 97 41 99 40 100H52C51 99 51 97 50 95C49 94 49 92 48 91C48 89 47 88 47 87C47 86 46 85 46 85Z" fill="white"/>
<path d="M72 76H82V117H72V76Z" fill="white"/>
</svg>
