<svg width="192" height="192" viewBox="0 0 192 192" fill="none" xmlns="http://www.w3.org/2000/svg">
<path d="M30 48H162C174.128 48 184 57.872 184 70V122C184 134.128 174.128 144 162 144H30C17.872 144 8 134.128 8 122V70C8 57.872 17.872 48 30 48ZM20 122C20 127.516 24.484 132 30 132H82C87.516 132 92 127.516 92 122V70C92 64.484 87.516 60 82 60H30C24.484 60 20 64.484 20 70V122Z" fill="white"/>
<path d="M57.5875 117C57.1537 115.58 56.6608 114.121 56.1087 112.622C55.596 111.123 55.0834 109.624 54.5707 108.126H38.5995C38.0869 109.624 37.5545 111.123 37.0024 112.622C36.4897 114.121 36.0165 115.58 35.5827 117H26C27.538 112.582 28.9971 108.5 30.3773 104.753C31.7575 101.006 33.0983 97.4762 34.3997 94.1631C35.7405 90.8499 37.0418 87.7143 38.3038 84.7561C39.6051 81.7585 40.9459 78.8398 42.3261 76H51.1399C52.4807 78.8398 53.8017 81.7585 55.1031 84.7561C56.4045 87.7143 57.7058 90.8499 59.0072 94.1631C60.348 97.4762 61.7085 101.006 63.0887 104.753C64.4689 108.5 65.928 112.582 67.466 117H57.5875ZM46.526 85.2886C46.3288 85.8802 46.033 86.6888 45.6387 87.7143C45.2443 88.7398 44.7908 89.923 44.2782 91.2641C43.7655 92.6051 43.1937 94.0842 42.5627 95.7013C41.9712 97.3184 41.36 99.0144 40.729 100.789H52.3821C51.7511 99.0144 51.1399 97.3184 50.5483 95.7013C49.9568 94.0842 49.385 92.6051 48.8329 91.2641C48.3203 89.923 47.8668 88.7398 47.4724 87.7143C47.0781 86.6888 46.7626 85.8802 46.526 85.2886Z" fill="white"/>
<path d="M72.7722 76H82V117H72.7722V76Z" fill="white"/>
</svg>
