<svg width="192" height="192" viewBox="0 0 192 192" fill="none" xmlns="http://www.w3.org/2000/svg">
<path d="M7.93047 88.132C7.97588 89.6903 8.62592 91.1697 9.74297 92.257L25.2273 107.741C25.5526 108.168 25.9336 108.549 26.3602 108.874L27.743 110.257C28.8682 111.382 30.3941 112.014 31.9852 112.014C33.5762 112.014 35.1021 111.382 36.2273 110.257L54.2273 92.257C54.8032 91.7041 55.2629 91.0419 55.5796 90.3092C55.8963 89.5764 56.0636 88.7878 56.0717 87.9896C56.0798 87.1913 55.9286 86.3995 55.6268 85.6604C55.3251 84.9214 54.8789 84.25 54.3145 83.6855C53.75 83.121 53.0786 82.6749 52.3395 82.3731C51.6005 82.0714 50.8087 81.9202 50.0104 81.9283C49.2122 81.9364 48.4236 82.1037 47.6908 82.4204C46.958 82.7371 46.2958 83.1968 45.743 83.7726L36.118 93.3976C37.4915 61.4181 63.6591 36.0148 95.9852 36.0148C116.289 36.0148 134.123 46.082 144.993 61.4758C145.447 62.1197 146.024 62.6677 146.691 63.0887C147.357 63.5096 148.099 63.7952 148.876 63.9291C149.653 64.063 150.448 64.0426 151.217 63.8691C151.986 63.6956 152.713 63.3723 153.357 62.9178C154.001 62.4632 154.549 61.8863 154.969 61.22C155.39 60.5537 155.676 59.811 155.81 59.0343C155.943 58.2576 155.923 57.4622 155.749 56.6935C155.576 55.9247 155.252 55.1977 154.798 54.5539C141.772 36.1077 120.265 24.0148 95.9852 24.0148C58.3735 24.0148 27.4449 53.031 24.2977 89.843L18.2273 83.7726C17.3843 82.907 16.2996 82.3161 15.1152 82.0772C13.9308 81.8382 12.7018 81.9624 11.5891 82.4335C10.4765 82.9046 9.53192 83.7006 8.87912 84.7173C8.22632 85.7341 7.89568 86.9242 7.93047 88.132ZM36.032 133.702C35.9764 135.053 36.3783 136.382 37.1727 137.476C50.1984 155.922 71.705 168.015 95.9852 168.015C133.597 168.015 164.525 138.999 167.673 102.187L173.743 108.257C174.296 108.833 174.958 109.293 175.691 109.609C176.424 109.926 177.212 110.093 178.01 110.101C178.809 110.11 179.6 109.958 180.34 109.657C181.079 109.355 181.75 108.909 182.314 108.344C182.879 107.78 183.325 107.108 183.627 106.369C183.929 105.63 184.08 104.838 184.072 104.04C184.064 103.242 183.896 102.453 183.58 101.72C183.263 100.988 182.803 100.326 182.227 99.7726L166.743 84.2883C166.418 83.8617 166.037 83.4807 165.61 83.1555L164.227 81.7726C163.102 80.6479 161.576 80.016 159.985 80.016C158.394 80.016 156.868 80.6479 155.743 81.7726L137.743 99.7726C137.167 100.332 136.709 101.001 136.396 101.74C136.084 102.48 135.923 103.275 135.923 104.077C135.923 105.271 136.279 106.438 136.947 107.429C137.614 108.419 138.561 109.188 139.668 109.636C140.774 110.085 141.99 110.194 143.158 109.948C144.327 109.702 145.395 109.114 146.227 108.257L155.852 98.632C154.479 130.612 128.311 156.015 95.9852 156.015C75.6813 156.015 57.8476 145.948 46.9773 130.554C46.2648 129.514 45.2429 128.725 44.0567 128.299C42.8705 127.873 41.5802 127.831 40.3689 128.179C39.1575 128.528 38.0867 129.249 37.3082 130.24C36.5298 131.232 36.0833 132.443 36.032 133.702Z" fill="white"/>
<circle cx="96.0001" cy="96" r="25" transform="rotate(-45 96.0001 96)" fill="white"/>
<path d="M89.6361 89.6361C88.855 88.855 88.855 87.5887 89.6361 86.8077L117.213 59.2305C117.994 58.4495 119.261 58.4495 120.042 59.2305L132.77 71.9584C133.551 72.7395 133.551 74.0058 132.77 74.7868L105.192 102.364C104.411 103.145 103.145 103.145 102.364 102.364L89.6361 89.6361Z" fill="white"/>
<path opacity="0.5" d="M59.2304 120.042C58.4494 119.261 58.4494 117.994 59.2304 117.213L86.8076 89.6361C87.5886 88.855 88.855 88.855 89.636 89.6361L102.364 102.364C103.145 103.145 103.145 104.411 102.364 105.192L74.7868 132.77C74.0057 133.551 72.7394 133.551 71.9584 132.77L59.2304 120.042Z" fill="white"/>
</svg>
