<svg width="192" height="192" viewBox="0 0 192 192" fill="none" xmlns="http://www.w3.org/2000/svg">
<path d="M7 88C7 89 8 91 9 92L25 107C25 108 25 108 26 108L27 110C28 111 30 112 31 112C33 112 35 111 36 110L54 92C54 91 55 91 55 90C55 89 56 88 56 87C56 87 55 86 55 85C55 84 54 84 54 83C53 83 53 82 52 82C51 82 50 81 50 81C49 81 48 82 47 82C46 82 46 83 45 83L36 93C37 61 63 36 95 36C116 36 134 46 144 61C145 62 146 62 146 63C147 63 148 63 148 63C149 64 150 64 151 63C151 63 152 63 153 62C154 62 154 61 154 61C155 60 155 59 155 59C155 58 155 57 155 56C155 55 155 55 154 54C141 36 120 24 95 24C58 24 27 53 24 89L18 83C17 82 16 82 15 82C13 81 12 81 11 82C10 82 9 83 8 84C8 85 7 86 7 88ZM36 133C35 135 36 136 37 137C50 155 71 168 95 168C133 168 164 138 167 102L173 108C174 108 174 109 175 109C176 109 177 110 178 110C178 110 179 109 180 109C181 109 181 108 182 108C182 107 183 107 183 106C183 105 184 104 184 104C184 103 183 102 183 101C183 100 182 100 182 99L166 84C166 83 166 83 165 83L164 81C163 80 161 80 159 80C158 80 156 80 155 81L137 99C137 100 136 101 136 101C136 102 135 103 135 104C135 105 136 106 136 107C137 108 138 109 139 109C140 110 141 110 143 109C144 109 145 109 146 108L155 98C154 130 128 156 95 156C75 156 57 145 46 130C46 129 45 128 44 128C42 127 41 127 40 128C39 128 38 129 37 130C36 131 36 132 36 133Z" fill="white"/>
<circle cx="96" cy="96" r="25" transform="rotate(-45 96 96)" fill="white"/>
<path d="M89 89C88 88 88 87 89 86L117 59C117 58 119 58 120 59L132 71C133 72 133 74 132 74L105 102C104 103 103 103 102 102L89 89Z" fill="white"/>
<path opacity="0" d="M59 120C58 119 58 117 59 117L86 89C87 88 88 88 89 89L102 102C103 103 103 104 102 105L74 132C74 133 72 133 71 132L59 120Z" fill="white"/>
</svg>
