<svg width="192" height="192" viewBox="0 0 192 192" fill="none" xmlns="http://www.w3.org/2000/svg">
<path d="M54 24C37 24 24 37 24 54V138C24 154 37 168 54 168H138C154 168 168 154 168 138V54C168 37 154 24 138 24H54ZM54 36H138C148 36 156 43 156 54V138C156 148 148 156 138 156H54C43 156 36 148 36 138V54C36 43 43 36 54 36ZM62 48C54 48 48 54 48 62V82C47 82 48 83 48 84C48 85 49 85 49 86C50 86 50 87 51 87C52 87 53 88 54 88C54 88 55 87 56 87C57 87 57 86 58 86C58 85 59 85 59 84C59 83 60 82 60 82V62C60 60 60 60 62 60H82C82 60 83 59 84 59C85 59 85 58 86 58C86 57 87 57 87 56C87 55 88 54 88 54C88 53 87 52 87 51C87 50 86 50 86 49C85 49 85 48 84 48C83 48 82 47 82 48H62ZM110 48C109 47 108 48 107 48C106 48 106 49 105 49C105 50 104 50 104 51C104 52 103 53 103 54C103 54 104 55 104 56C104 57 105 57 105 58C106 58 106 59 107 59C108 59 109 60 110 60H130C131 60 132 60 132 62V82C131 82 132 83 132 84C132 85 133 85 133 86C134 86 134 87 135 87C136 87 137 88 138 88C138 88 139 87 140 87C141 87 141 86 142 86C142 85 143 85 143 84C143 83 144 82 144 82V62C144 54 137 48 130 48H110ZM53 103C52 103 50 104 49 105C48 106 47 108 48 110V130C48 137 54 144 62 144H82C82 144 83 143 84 143C85 143 85 142 86 142C86 141 87 141 87 140C87 139 88 138 88 138C88 137 87 136 87 135C87 134 86 134 86 133C85 133 85 132 84 132C83 132 82 131 82 132H62C60 132 60 131 60 130V110C60 109 59 108 59 107C59 106 58 106 58 105C57 105 56 104 56 104C55 104 54 103 53 103ZM137 103C136 103 134 104 133 105C132 106 131 108 132 110V130C132 131 131 132 130 132H110C109 131 108 132 107 132C106 132 106 133 105 133C105 134 104 134 104 135C104 136 103 137 103 138C103 138 104 139 104 140C104 141 105 141 105 142C106 142 106 143 107 143C108 143 109 144 110 144H130C137 144 144 137 144 130V110C144 109 143 108 143 107C143 106 142 106 142 105C141 105 140 104 140 104C139 104 138 103 137 103Z" fill="white"/>
</svg>
