<svg width="192" height="192" viewBox="0 0 192 192" fill="none" xmlns="http://www.w3.org/2000/svg">
<path d="M54 24C37.502 24 24 37.502 24 54V138C24 154.498 37.502 168 54 168H138C154.498 168 168 154.498 168 138V54C168 37.502 154.498 24 138 24H54ZM54 36H138C148.014 36 156 43.986 156 54V138C156 148.014 148.014 156 138 156H54C43.986 156 36 148.014 36 138V54C36 43.986 43.986 36 54 36ZM62 48C54.3402 48 48 54.3402 48 62V82C47.9888 82.7951 48.1356 83.5844 48.4321 84.3223C48.7286 85.0601 49.1688 85.7316 49.727 86.2978C50.2853 86.864 50.9505 87.3137 51.6841 87.6205C52.4176 87.9274 53.2048 88.0855 54 88.0855C54.7952 88.0855 55.5824 87.9274 56.3159 87.6205C57.0495 87.3137 57.7147 86.864 58.273 86.2978C58.8312 85.7316 59.2714 85.0601 59.5679 84.3223C59.8644 83.5844 60.0112 82.7951 60 82V62C60 60.8198 60.8198 60 62 60H82C82.7951 60.0112 83.5844 59.8644 84.3223 59.5679C85.0601 59.2714 85.7316 58.8312 86.2978 58.273C86.864 57.7147 87.3137 57.0495 87.6205 56.3159C87.9274 55.5824 88.0855 54.7952 88.0855 54C88.0855 53.2048 87.9274 52.4176 87.6205 51.6841C87.3137 50.9505 86.864 50.2853 86.2978 49.727C85.7316 49.1688 85.0601 48.7286 84.3223 48.4321C83.5844 48.1356 82.7951 47.9888 82 48H62ZM110 48C109.205 47.9888 108.416 48.1356 107.678 48.4321C106.94 48.7286 106.268 49.1688 105.702 49.727C105.136 50.2853 104.686 50.9505 104.379 51.6841C104.073 52.4176 103.915 53.2048 103.915 54C103.915 54.7952 104.073 55.5824 104.379 56.3159C104.686 57.0495 105.136 57.7147 105.702 58.273C106.268 58.8312 106.94 59.2714 107.678 59.5679C108.416 59.8644 109.205 60.0112 110 60H130C131.18 60 132 60.8198 132 62V82C131.989 82.7951 132.136 83.5844 132.432 84.3223C132.729 85.0601 133.169 85.7316 133.727 86.2978C134.285 86.864 134.951 87.3137 135.684 87.6205C136.418 87.9274 137.205 88.0855 138 88.0855C138.795 88.0855 139.582 87.9274 140.316 87.6205C141.049 87.3137 141.715 86.864 142.273 86.2978C142.831 85.7316 143.271 85.0601 143.568 84.3223C143.864 83.5844 144.011 82.7951 144 82V62C144 54.3402 137.66 48 130 48H110ZM53.9062 103.914C52.3163 103.939 50.8012 104.594 49.6938 105.735C48.5864 106.876 47.9772 108.41 48 110V130C48 137.66 54.3402 144 62 144H82C82.7951 144.011 83.5844 143.864 84.3223 143.568C85.0601 143.271 85.7316 142.831 86.2978 142.273C86.864 141.715 87.3137 141.049 87.6205 140.316C87.9274 139.582 88.0855 138.795 88.0855 138C88.0855 137.205 87.9274 136.418 87.6205 135.684C87.3137 134.951 86.864 134.285 86.2978 133.727C85.7316 133.169 85.0601 132.729 84.3223 132.432C83.5844 132.136 82.7951 131.989 82 132H62C60.8198 132 60 131.18 60 130V110C60.0115 109.197 59.8617 108.4 59.5595 107.656C59.2572 106.912 58.8086 106.236 58.2404 105.668C57.6721 105.101 56.9957 104.653 56.2512 104.352C55.5067 104.05 54.7093 103.902 53.9062 103.914ZM137.906 103.914C136.316 103.939 134.801 104.594 133.694 105.735C132.586 106.876 131.977 108.41 132 110V130C132 131.18 131.18 132 130 132H110C109.205 131.989 108.416 132.136 107.678 132.432C106.94 132.729 106.268 133.169 105.702 133.727C105.136 134.285 104.686 134.951 104.379 135.684C104.073 136.418 103.915 137.205 103.915 138C103.915 138.795 104.073 139.582 104.379 140.316C104.686 141.049 105.136 141.715 105.702 142.273C106.268 142.831 106.94 143.271 107.678 143.568C108.416 143.864 109.205 144.011 110 144H130C137.66 144 144 137.66 144 130V110C144.012 109.197 143.862 108.4 143.559 107.656C143.257 106.912 142.809 106.236 142.24 105.668C141.672 105.101 140.996 104.653 140.251 104.352C139.507 104.05 138.709 103.902 137.906 103.914Z" fill="white"/>
</svg>
