<svg width="192" height="192" viewBox="0 0 192 192" fill="none" xmlns="http://www.w3.org/2000/svg">
<path d="M176 132L153 119L171 63C172 61 171 59 169 57C168 55 165 55 163 56L121 77L103 31C102 29 100 28 98 28C95 28 93 29 92 31L74 77L36 56C34 55 31 55 30 57C28 59 27 61 28 64L46 115L18 132C17 134 16 135 16 138C16 140 17 141 18 143L50 163C51 163 52 164 54 164H75L80 152L68 145C65 143 65 137 69 136L80 132L75 119C74 115 78 111 82 114L92 120L95 106C97 102 102 102 104 106L108 120L116 114C120 111 125 116 122 120L116 132L128 136C132 137 133 143 129 145L116 152L124 164H138C139 164 140 163 140 163L176 143C178 142 179 140 180 138C180 135 178 133 176 132Z" fill="white"/>
</svg>
