<svg width="192" height="192" viewBox="0 0 192 192" fill="none" xmlns="http://www.w3.org/2000/svg">
<path d="M176.976 132.792L153.248 119.232L171.692 63.9C172.46 61.6 171.764 59.06 169.932 57.472C168.1 55.884 165.492 55.556 163.316 56.64L121.228 77.684L103.6 31.844C102.708 29.528 100.484 28 98 28C95.516 28 93.292 29.528 92.4 31.844L74.86 77.452L36.872 56.732C34.684 55.532 31.988 55.82 30.1 57.44C28.208 59.056 27.512 61.676 28.348 64.02L46.724 115.472L18.816 132.912C17.068 134.008 16 135.932 16 138C16 140.068 17.068 141.992 18.82 143.088L50.82 163.088C51.772 163.684 52.876 164 54 164H75.12L80 152L68.712 145.228C65.14 143.084 65.564 137.776 69.432 136.228L80 132L75.728 119.184C74.448 115.344 78.636 111.984 82.108 114.068L92 120L95.808 106.676C97.012 102.46 102.988 102.46 104.192 106.676L108 120L116.632 114.248C120.46 111.696 125.12 116.044 122.836 120.04L116 132L128.46 136.152C132.72 137.572 133.136 143.432 129.12 145.44L116 152L124 164H138C139.02 164 140.024 163.74 140.916 163.244L176.916 143.244C178.808 142.192 179.988 140.204 180 138.036C180.012 135.868 178.856 133.864 176.976 132.792Z" fill="white"/>
</svg>
