<svg width="192" height="192" viewBox="0 0 192 192" fill="none" xmlns="http://www.w3.org/2000/svg">
<path d="M86 24C78 24 72 30 72 38V58C72 65 78 72 86 72H90V88H48C40 88 34 94 34 102V120H30C22 120 16 126 16 134V154C16 161 22 168 30 168H50C57 168 64 161 64 154V134C64 126 57 120 50 120H46V102C46 100 46 100 48 100H90V120H86C78 120 72 126 72 134V154C72 161 78 168 86 168H106C113 168 120 161 120 154V134C120 126 113 120 106 120H102V100H144C145 100 146 100 146 102V120H142C134 120 128 126 128 134V154C128 161 134 168 142 168H162C169 168 176 161 176 154V134C176 126 169 120 162 120H158V102C158 94 151 88 144 88H102V72H106C113 72 120 65 120 58V38C120 30 113 24 106 24H86Z" fill="white"/>
</svg>
