<svg width="192" height="192" viewBox="0 0 192 192" fill="none" xmlns="http://www.w3.org/2000/svg">
<path d="M86 24C78.28 24 72 30.28 72 38V58C72 65.72 78.28 72 86 72H90V88H48C40.3402 88 34 94.3402 34 102V120H30C22.28 120 16 126.28 16 134V154C16 161.72 22.28 168 30 168H50C57.72 168 64 161.72 64 154V134C64 126.28 57.72 120 50 120H46V102C46 100.82 46.8198 100 48 100H90V120H86C78.28 120 72 126.28 72 134V154C72 161.72 78.28 168 86 168H106C113.72 168 120 161.72 120 154V134C120 126.28 113.72 120 106 120H102V100H144C145.18 100 146 100.82 146 102V120H142C134.28 120 128 126.28 128 134V154C128 161.72 134.28 168 142 168H162C169.72 168 176 161.72 176 154V134C176 126.28 169.72 120 162 120H158V102C158 94.3402 151.66 88 144 88H102V72H106C113.72 72 120 65.72 120 58V38C120 30.28 113.72 24 106 24H86Z" fill="white"/>
</svg>
