<svg width="192" height="192" viewBox="0 0 192 192" fill="none" xmlns="http://www.w3.org/2000/svg">
<path d="M34 57C35 61 37 64 40 66L62 87L90 55L75 36C72 33 68 31 64 30L36 25C34 24 32 25 30 26C29 28 28 30 29 32L34 57ZM165 137L141 161C139 164 139 167 141 170C142 171 144 172 146 172C147 172 149 171 150 170L174 146C176 143 176 140 174 137C171 135 168 135 165 137ZM138 110L123 92L151 66C154 64 156 61 157 57L162 32C163 30 162 28 161 26C159 25 157 24 155 25L127 30C123 31 121 33 118 35L55 108L79 131L96 117L114 134L138 110ZM138 153L157 134L149 126L162 114C164 111 164 108 162 105C160 103 157 103 155 104L108 151C107 153 107 156 109 158C110 159 112 160 114 160C115 160 117 159 118 158L130 145L138 153ZM26 137C23 135 20 135 17 137C15 140 15 143 17 146L41 170C42 171 44 172 46 172C47 172 49 171 50 170C52 167 52 164 50 161L26 137ZM83 146L39 102C36 100 33 100 30 102C28 105 28 109 30 111L44 124L34 134L53 153L63 143L74 155C75 156 77 157 78 157C80 157 82 156 83 155C85 153 85 149 83 146Z" fill="white"/>
</svg>
