<svg width="192" height="192" viewBox="0 0 192 192" fill="none" xmlns="http://www.w3.org/2000/svg">
<path d="M34.94 57.464C35.752 61.12 37.652 64.38 40.428 66.896L62.816 87.176L90.724 55.08L75.108 36.884C72.5 33.844 68.9 31.736 64.976 30.956L36.412 25.244C34.424 24.844 32.372 25.476 30.952 26.932C29.524 28.388 28.936 30.44 29.38 32.428L34.94 57.464ZM165.756 137.756L141.756 161.756C139.412 164.1 139.412 167.896 141.756 170.24C142.928 171.416 144.464 172 146 172C147.536 172 149.072 171.416 150.244 170.244L174.244 146.244C176.588 143.9 176.588 140.104 174.244 137.76C171.9 135.416 168.1 135.416 165.756 137.756ZM138.22 110.42L123.044 92.736L151.568 66.9C154.344 64.384 156.244 61.124 157.056 57.468L162.62 32.432C163.06 30.444 162.476 28.388 161.048 26.932C159.628 25.476 157.572 24.848 155.588 25.244L127.016 30.96C123.944 31.572 121.088 33.02 118.736 35.068L55.852 108.004L79.776 131.928L96 117.232L114.58 134.06L138.22 110.42ZM138.636 153.476L157.464 134.648L149.652 126.836L162.244 114.244C164.588 111.9 164.588 108.104 162.244 105.76C160.284 103.8 157.356 103.58 155.064 104.896L108.892 151.06C107.576 153.352 107.8 156.284 109.756 158.24C110.928 159.416 112.464 160 114 160C115.536 160 117.072 159.416 118.244 158.244L130.824 145.664L138.636 153.476ZM26.244 137.756C23.9 135.412 20.104 135.412 17.76 137.756C15.416 140.1 15.416 143.896 17.76 146.24L41.76 170.24C42.928 171.416 44.464 172 46 172C47.536 172 49.072 171.416 50.244 170.244C52.588 167.9 52.588 164.104 50.244 161.76L26.244 137.756ZM83.18 146.948L39.18 102.948C36.836 100.604 33.04 100.604 30.696 102.948C28.352 105.292 28.352 109.088 30.696 111.432L44.104 124.84L34.472 134.58L53.36 153.468L63.048 143.784L74.692 155.428C75.864 156.6 77.4 157.184 78.936 157.184C80.472 157.184 82.008 156.6 83.18 155.428C85.524 153.088 85.524 149.292 83.18 146.948Z" fill="white"/>
</svg>
