<svg width="192" height="192" viewBox="0 0 192 192" fill="none" xmlns="http://www.w3.org/2000/svg">
<path d="M39.596 152.668C52.74 165.748 70.404 174.228 89.996 175.696V102.484L40.24 152.244C40.048 152.432 39.804 152.512 39.596 152.668ZM101.996 85.516L160.116 143.636C170.044 130.308 175.996 113.856 175.996 96C175.996 53.912 143.308 19.392 101.996 16.304V85.516ZM89.996 85.516V16.304C48.688 19.392 15.996 53.912 15.996 96C15.996 113.856 21.948 130.308 31.876 143.636L89.996 85.516ZM151.752 152.244L101.996 102.484V175.696C121.588 174.232 139.256 165.748 152.396 152.668C152.188 152.512 151.944 152.432 151.752 152.244Z" fill="white"/>
</svg>
