<svg width="192" height="192" viewBox="0 0 192 192" fill="none" xmlns="http://www.w3.org/2000/svg">
<path d="M96 20C89 20 83 23 80 29L72 42C79 40 88 40 96 40C104 40 111 40 119 42L112 29C108 23 102 20 96 20ZM96 52C84 52 74 53 64 56L51 80C63 72 79 68 96 68C112 68 128 72 140 80L127 56C117 53 107 52 96 52ZM96 80C65 80 40 98 40 120C40 142 65 160 96 160C126 160 152 142 152 120C152 98 126 80 96 80ZM96 96C122 96 134 117 135 118C136 119 136 120 135 122C134 122 122 144 96 144C70 144 57 122 56 122C55 120 55 119 56 118C56 117 70 96 96 96ZM96 108C92 108 89 109 87 111C85 113 84 116 84 120C84 123 85 126 87 128C89 130 92 132 96 132C99 132 102 130 104 128C106 126 108 123 108 120C108 116 106 113 104 111C102 109 99 108 96 108ZM28 122L18 141C15 146 15 153 18 159C21 164 27 168 34 168H70C46 160 29 143 28 122ZM163 123C162 143 145 160 122 168H158C164 168 170 164 173 159C176 153 176 146 173 141L163 123Z" fill="white"/>
</svg>
