<svg width="192" height="192" viewBox="0 0 192 192" fill="none" xmlns="http://www.w3.org/2000/svg">
<path d="M96 20C89.2 20 83.6 23.6031 80 29.2031L72.7969 42.3984C79.9969 40.7984 88 40 96 40C104 40 111.603 40.7984 119.203 42.3984L112 29.2031C108.4 23.6031 102.8 20 96 20ZM96 52C84.8 52 74.3969 53.5969 64.7969 56.7969L51.6016 80.7969C63.6016 72.7969 79.2 68 96 68C112.8 68 128.398 72.7969 140.398 80.7969L127.203 56.7969C117.603 53.5969 107.2 52 96 52ZM96 80C65.2 80 40 98 40 120C40 142 65.2 160 96 160C126.8 160 152 142 152 120C152 98 126.8 80 96 80ZM96 96C122 96 134.802 117.2 135.602 118C136.002 119.2 136.002 120.8 135.602 122C134.802 122.8 122 144 96 144C70 144 57.1985 122.8 56.3985 122C55.5985 120.8 55.5985 119.2 56.3985 118C56.7985 117.2 70 96 96 96ZM96 108C92.8174 108 89.7652 109.264 87.5147 111.515C85.2643 113.765 84 116.817 84 120C84 123.183 85.2643 126.235 87.5147 128.485C89.7652 130.736 92.8174 132 96 132C99.1826 132 102.235 130.736 104.485 128.485C106.736 126.235 108 123.183 108 120C108 116.817 106.736 113.765 104.485 111.515C102.235 109.264 99.1826 108 96 108ZM28 122.797L18 141.203C15.2 146.803 15.1985 153.603 18.3985 159.203C21.5985 164.803 27.6 168 34 168H70C46.4 160.4 29.6 143.197 28 122.797ZM163.602 123.203C162.002 143.203 145.2 160.4 122 168H158C164.4 168 170.402 164.803 173.602 159.203C176.802 153.603 176.802 146.803 173.602 141.203L163.602 123.203Z" fill="white"/>
</svg>
