<svg width="192" height="192" viewBox="0 0 192 192" fill="none" xmlns="http://www.w3.org/2000/svg">
<path d="M84 24C50.9577 24 24 50.9577 24 84C24 117.042 50.9577 144 84 144C97.6403 144 110.097 139.227 120.195 131.508L154.344 165.656C155.081 166.424 155.964 167.037 156.941 167.459C157.918 167.882 158.969 168.105 160.034 168.116C161.098 168.126 162.154 167.925 163.139 167.522C164.125 167.12 165.02 166.525 165.773 165.773C166.525 165.02 167.12 164.125 167.522 163.139C167.925 162.154 168.126 161.098 168.116 160.034C168.105 158.969 167.882 157.918 167.459 156.941C167.037 155.964 166.424 155.081 165.656 154.344L131.508 120.195C139.227 110.097 144 97.6403 144 84C144 50.9577 117.042 24 84 24ZM84 40C108.395 40 128 59.6047 128 84C128 108.395 108.395 128 84 128C59.6047 128 40 108.395 40 84C40 59.6047 59.6047 40 84 40ZM64 76C62.9399 75.985 61.8874 76.1809 60.9037 76.5762C59.9199 76.9715 59.0245 77.5584 58.2696 78.3027C57.5146 79.0471 56.9151 79.9341 56.506 80.9121C56.0968 81.8902 55.8861 82.9398 55.8861 84C55.8861 85.0602 56.0968 86.1098 56.506 87.0879C56.9151 88.0659 57.5146 88.9529 58.2696 89.6973C59.0245 90.4416 59.9199 91.0285 60.9037 91.4238C61.8874 91.8191 62.9399 92.015 64 92H104C105.06 92.015 106.113 91.8191 107.096 91.4238C108.08 91.0285 108.975 90.4416 109.73 89.6973C110.485 88.9529 111.085 88.0659 111.494 87.0879C111.903 86.1098 112.114 85.0602 112.114 84C112.114 82.9398 111.903 81.8902 111.494 80.9121C111.085 79.9341 110.485 79.0471 109.73 78.3027C108.975 77.5584 108.08 76.9715 107.096 76.5762C106.113 76.1809 105.06 75.985 104 76H64Z" fill="white"/>
</svg>
