<svg width="192" height="192" viewBox="0 0 192 192" fill="none" xmlns="http://www.w3.org/2000/svg">
<path d="M84 24C50 24 24 50 24 84C24 117 50 144 84 144C97 144 110 139 120 131L154 165C155 166 155 167 156 167C157 167 158 168 160 168C161 168 162 167 163 167C164 167 165 166 165 165C166 165 167 164 167 163C167 162 168 161 168 160C168 158 167 157 167 156C167 155 166 155 165 154L131 120C139 110 144 97 144 84C144 50 117 24 84 24ZM84 40C108 40 128 59 128 84C128 108 108 128 84 128C59 128 40 108 40 84C40 59 59 40 84 40ZM83 55C81 55 79 56 78 58C76 59 75 61 76 64V76H64C62 75 61 76 60 76C59 76 59 77 58 78C57 79 56 79 56 80C56 81 55 82 55 84C55 85 56 86 56 87C56 88 57 88 58 89C59 90 59 91 60 91C61 91 62 92 64 92H76V104C75 105 76 106 76 107C76 108 77 108 78 109C79 110 79 111 80 111C81 111 82 112 84 112C85 112 86 111 87 111C88 111 88 110 89 109C90 108 91 108 91 107C91 106 92 105 92 104V92H104C105 92 106 91 107 91C108 91 108 90 109 89C110 88 111 88 111 87C111 86 112 85 112 84C112 82 111 81 111 80C111 79 110 79 109 78C108 77 108 76 107 76C106 76 105 75 104 76H92V64C92 62 91 61 91 60C91 59 90 58 89 58C88 57 87 56 87 56C86 56 84 55 83 55Z" fill="white"/>
</svg>
